<svg xmlns="http://www.w3.org/2000/svg" width="48" height="56" viewBox="0 0 48 56" fill="none">
  
  <ellipse cx="24" cy="53" rx="10" ry="3" fill="#000" opacity="0.10"></ellipse>
  
  
  <path d="M24 2C14.059 2 6 10.059 6 20c0 13.5 18 34 18 34S42 33.5 42 20C42 10.059 33.941 2 24 2z" fill="#61c0bf"></path>
  
  
  <path d="M24 2C14.059 2 6 10.059 6 20c0 4.5 1.5 9.5 4 14.5C12 26 12 20 12 20c0-6.627 5.373-12 12-12s12 5.373 12 12c0 0 0 6-2 14.5 2.5-5 4-10 4-14.5C38 10.059 33.941 2 24 2z" fill="#7dd4d3" opacity="0.4"></path>

  
  <circle cx="24" cy="20" r="9" fill="white" opacity="0.95"></circle>
  
  
  
  <line x1="15" y1="20" x2="33" y2="20" stroke="#61c0bf" stroke-width="1" opacity="0.6"></line>
  
  <line x1="24" y1="11" x2="24" y2="29" stroke="#61c0bf" stroke-width="1" opacity="0.6"></line>
  
  <circle cx="24" cy="20" r="9" stroke="#61c0bf" stroke-width="1.5" fill="none"></circle>
  
  <path d="M15.5 16.5 Q24 14 32.5 16.5" stroke="#61c0bf" stroke-width="1" fill="none" opacity="0.5"></path>
  
  <path d="M15.5 23.5 Q24 26 32.5 23.5" stroke="#61c0bf" stroke-width="1" fill="none" opacity="0.5"></path>
</svg>